<?xml version="1.0" encoding="utf-8"?>
<!-- Generator: Adobe Illustrator 28.1.0, SVG Export Plug-In . SVG Version: 6.00 Build 0)  -->
<svg version="1.1" id="レイヤー_1" xmlns="http://www.w3.org/2000/svg" xmlns:xlink="http://www.w3.org/1999/xlink" x="0px"
	 y="0px" viewBox="0 0 3204.77 1613.78" style="enable-background:new 0 0 3204.77 1613.78;" xml:space="preserve">
<style type="text/css">
	.st0{fill:none;stroke:#C4C4C4;stroke-miterlimit:10;}
	.st1{fill:#6FB4B7;}
</style>
<rect x="430.87" y="274.78" class="st0" width="2232" height="1686"/>
<path class="st1" d="M2386.83,817.63c0,171.24-105.89,316.66-277.12,316.66s-254.94-30.38-401.65-118.69
	c-167.52-100.83,77.97-354.62,249.21-354.62S2386.83,646.39,2386.83,817.63z"/>
<path class="st1" d="M847.01,1226.63c0,171.24-105.89,316.66-277.12,316.66s-254.94-30.38-401.65-118.69
	c-167.52-100.83,77.97-354.62,249.21-354.62S847.01,1055.39,847.01,1226.63z"/>
<path class="st1" d="M3113.83,1282.63c0,171.24-105.89,316.66-277.12,316.66s-254.94-30.38-401.65-118.69
	c-167.52-100.83,77.97-354.62,249.21-354.62C2855.51,1125.99,3113.83,1111.39,3113.83,1282.63z"/>
<path class="st1" d="M1673.89,285.63c0,171.24-105.89,316.66-277.12,316.66s-254.94-30.38-401.65-118.69
	c-167.52-100.83,77.97-354.62,249.21-354.62S1673.89,114.39,1673.89,285.63z"/>
</svg>
