<?xml version="1.0" encoding="utf-8"?>
<!-- Generator: Adobe Illustrator 28.1.0, SVG Export Plug-In . SVG Version: 6.00 Build 0)  -->
<svg version="1.1" id="レイヤー_1" xmlns="http://www.w3.org/2000/svg" xmlns:xlink="http://www.w3.org/1999/xlink" x="0px"
	 y="0px" viewBox="0 0 3094.47 2649.13" style="enable-background:new 0 0 3094.47 2649.13;" xml:space="preserve">
<style type="text/css">
	.st0{fill:#6FB4B7;}
</style>
<path class="st0" d="M2402.01,1376.98c0,171.24-105.89,316.66-277.12,316.66s-254.94-30.38-401.65-118.69
	c-167.52-100.83,77.97-354.62,249.21-354.62S2402.01,1205.74,2402.01,1376.98z"/>
<path class="st0" d="M1077.86,2099.56c0,171.24-105.89,316.66-277.12,316.66s-254.94-30.38-401.65-118.69
	c-167.52-100.83,77.97-354.62,249.21-354.62S1077.86,1928.32,1077.86,2099.56z"/>
<path class="st0" d="M813.86,1163.21c0,171.24-105.89,316.66-277.12,316.66s-254.94-30.38-401.65-118.69
	c-167.52-100.83,77.97-354.62,249.21-354.62S813.86,991.97,813.86,1163.21z"/>
<path class="st0" d="M3000.01,2256.69c0,171.24-105.89,316.66-277.12,316.66c-171.24,0-254.94-30.38-401.65-118.69
	c-167.52-100.83,77.97-354.62,249.21-354.62C2741.69,2100.05,3000.01,2085.45,3000.01,2256.69z"/>
<path class="st0" d="M1768.89,331.27c0,171.24-105.89,316.66-277.12,316.66s-254.94-30.38-401.65-118.69
	c-167.52-100.83,77.97-354.62,249.21-354.62S1768.89,160.03,1768.89,331.27z"/>
</svg>
